#!OML:ASF H:\Dans Jumps\Project 1\Capture day 1\Session 1\subject.ASF
:FULLY-SPECIFIED
:DEGREES
454
root 0.400384 17.7372 7.2526 8.89704 0.135108 -1.6591
lowerback -1.58639 -0.083315 -0.0786647
upperback 3.01626 -0.168844 1.7035
thorax 4.00005 -0.115336 1.79165
lowerneck -11.3298 0.216887 -1.85313
upperneck 38.0315 0.233327 1.59397
head 15.1587 0.0506699 1.04199
rclavicle -3.8763e-015 -1.11319e-014
rhumerus -25.2516 -15.3542 -79.8047
rradius 22.8415
rwrist 37.7937
rhand -15.6036 -25.6864
rfingers 7.12502
rthumb 10.5826 -55.4
lclavicle -3.8763e-015 -1.11319e-014
lhumerus -21.9104 2.5304 85.9844
lradius 16.6703
lwrist 2.47963
lhand -25.5973 -5.31279
lfingers 7.12502
lthumb 0.934654 24.6649
rfemur -12.8147 -1.78981 19.8553
rtibia 18.7983
rfoot -12.7146 -2.79069
rtoes 14.2739
lfemur -13.6954 6.06487 -17.4207
ltibia 17.8851
lfoot -10.3779 3.3378
ltoes 0.355918
455
root 0.40089 17.7371 7.25022 8.88241 0.122948 -1.65208
lowerback -1.61583 -0.0876349 -0.0821791
upperback 3.01589 -0.17448 1.69594
thorax 4.01652 -0.118195 1.78556
lowerneck -11.3405 0.226947 -1.844
upperneck 38.0167 0.252805 1.57614
head 15.1535 0.0578199 1.0357
rclavicle 1.44119e-015 1.78906e-015
rhumerus -25.2777 -15.4206 -79.7919
rradius 22.8209
rwrist 37.8334
rhand -15.5754 -25.6915
rfingers 7.12502
rthumb 10.6097 -55.4037
lclavicle 1.44119e-015 1.78906e-015
lhumerus -21.9069 2.69621 85.9268
lradius 16.6022
lwrist 2.36085
lhand -25.6117 -5.38131
lfingers 7.12502
lthumb 0.920742 24.5964
rfemur -12.8133 -1.78496 19.8447
rtibia 18.8067
rfoot -12.7123 -2.79285
rtoes 14.2496
lfemur -13.6756 6.05544 -17.429
ltibia 17.8672
lfoot -10.3664 3.35427
ltoes 0.376928
456
root 0.401462 17.737 7.24793 8.86525 0.108949 -1.64332
lowerback -1.64315 -0.0919737 -0.0871929
upperback 3.01714 -0.180069 1.68786
thorax 4.03348 -0.121078 1.77978
lowerneck -11.3511 0.234795 -1.83983
upperneck 38.0008 0.268801 1.56225
head 15.1479 0.063311 1.03139
rclavicle 2.28602e-015 1.0138e-014
rhumerus -25.2965 -15.5036 -79.776
rradius 22.7871
rwrist 37.8933
rhand -15.5591 -25.689
rfingers 7.12502
rthumb 10.6255 -55.4004
lclavicle 2.28602e-015 1.0138e-014
lhumerus -21.8964 2.84423 85.8757
lradius 16.5251
lwrist 2.24584
lhand -25.6133 -5.45011
lfingers 7.12502
lthumb 0.919213 24.5277
rfemur -12.8098 -1.77853 19.8317
rtibia 18.8168
rfoot -12.7117 -2.79595
rtoes 14.2164
lfemur -13.6524 6.05062 -17.4395
ltibia 17.8499
lfoot -10.3552 3.36553
ltoes 0.40839
457
root 0.402047 17.7368 7.24566 8.84483 0.0932199 -1.63211
lowerback -1.66713 -0.0955005 -0.0955388
upperback 3.01939 -0.184424 1.67965
thorax 4.04954 -0.123449 1.77579
lowerneck -11.3597 0.240728 -1.83831
upperneck 37.9878 0.282186 1.54948
head 15.1432 0.0674514 1.02766
rclavicle 3.37934e-015 1.37161e-014
rhumerus -25.3122 -15.5921 -79.7582
rradius 22.7476
rwrist 37.9594
rhand -15.5524 -25.6769
rfingers 7.12502
rthumb 10.6319 -55.388
lclavicle 3.37934e-015 1.37161e-014
lhumerus -21.8859 2.98001 85.8314
lradius 16.4522
lwrist 2.14435
lhand -25.6256 -5.54286
lfingers 7.12502
lthumb 0.907329 24.435
rfemur -12.8038 -1.76702 19.8154
rtibia 18.8289
rfoot -12.7126 -2.80377
rtoes 14.1828
lfemur -13.625 6.04829 -17.4522
ltibia 17.8324
lfoot -10.3441 3.37372
ltoes 0.456591
458
root 0.402642 17.7366 7.24337 8.82333 0.0745043 -1.61974
lowerback -1.68839 -0.0971176 -0.104527
upperback 3.02024 -0.186122 1.67047
thorax 4.06253 -0.124481 1.7713
lowerneck -11.3664 0.245989 -1.8326
upperneck 37.9821 0.295584 1.53086
head 15.1418 0.0713749 1.02082
rclavicle -1.68967e-015 -8.34896e-015
rhumerus -25.3306 -15.6812 -79.7401
rradius 22.7069
rwrist 38.0224
rhand -15.5407 -25.6643
rfingers 7.12502
rthumb 10.6433 -55.3747
lclavicle -1.68967e-015 -8.34896e-015
lhumerus -21.8821 3.10259 85.7933
lradius 16.3914
lwrist 2.06234
lhand -25.6263 -5.61076
lfingers 7.12502
lthumb 0.906689 24.3671
rfemur -12.7976 -1.74777 19.7975
rtibia 18.8426
rfoot -12.7136 -2.81747
rtoes 14.1335
lfemur -13.596 6.0515 -17.4664
ltibia 17.8143
lfoot -10.3333 3.37752
ltoes 0.501556
459
root 0.403294 17.7364 7.24102 8.80235 0.0569635 -1.60817
lowerback -1.70701 -0.0994314 -0.112159
upperback 3.01961 -0.188772 1.66189
thorax 4.0725 -0.125935 1.76659
lowerneck -11.3731 0.250863 -1.82661
upperneck 37.985 0.308604 1.51135
head 15.1446 0.0749932 1.01361
rclavicle 2.98177e-016 -8.34896e-015
rhumerus -25.3546 -15.7656 -79.7212
rradius 22.6712
rwrist 38.0797
rhand -15.5172 -25.6497
rfingers 7.12502
rthumb 10.6659 -55.359
lclavicle 2.98177e-016 -8.34896e-015
lhumerus -21.8892 3.21996 85.7611
lradius 16.3478
lwrist 2.00427
lhand -25.6165 -5.65141
lfingers 7.12502
lthumb 0.916119 24.3264
rfemur -12.7928 -1.72702 19.7804
rtibia 18.8579
rfoot -12.7156 -2.83404
rtoes 14.08
lfemur -13.5676 6.06007 -17.4803
ltibia 17.7945
lfoot -10.3225 3.37501
ltoes 0.534272
460
root 0.404036 17.7363 7.2387 8.78361 0.039049 -1.59624
lowerback -1.72538 -0.101976 -0.120058
upperback 3.01696 -0.191708 1.65393
thorax 4.08025 -0.127531 1.76266
lowerneck -11.3781 0.257046 -1.82158
upperneck 37.9952 0.324194 1.49086
head 15.1505 0.0793783 1.00666
rclavicle 2.48481e-016 5.96354e-016
rhumerus -25.3834 -15.8456 -79.7013
rradius 22.6378
rwrist 38.1272
rhand -15.4901 -25.643
rfingers 7.12502
rthumb 10.692 -55.3509
lclavicle 2.48481e-016 5.96354e-016
lhumerus -21.9102 3.33607 85.7353
lradius 16.321
lwrist 1.96493
lhand -25.5897 -5.64014
lfingers 7.12502
lthumb 0.942021 24.3375
rfemur -12.7905 -1.70557 19.7627
rtibia 18.8744
rfoot -12.7182 -2.85195
rtoes 14.0084
lfemur -13.5412 6.07297 -17.4957
ltibia 17.773
lfoot -10.3122 3.36887
ltoes 0.553774
461
root 0.404906 17.7363 7.23653 8.76648 0.0205314 -1.58064
lowerback -1.74329 -0.10575 -0.131984
upperback 3.01189 -0.196077 1.64553
thorax 4.08529 -0.129935 1.76044
lowerneck -11.3786 0.264448 -1.81435
upperneck 38.0105 0.342089 1.46708
head 15.1579 0.0845578 0.998319
rclavicle -2.48481e-016 -6.55989e-015
rhumerus -25.4224 -15.9181 -79.6808
rradius 22.6127
rwrist 38.1677
rhand -15.4684 -25.6258
rfingers 7.12502
rthumb 10.713 -55.3327
lclavicle -2.48481e-016 -6.55989e-015
lhumerus -21.9456 3.45236 85.7144
lradius 16.3027
lwrist 1.92726
lhand -25.5446 -5.58502
lfingers 7.12502
lthumb 0.985584 24.3924
rfemur -12.7901 -1.68575 19.7406
rtibia 18.8919
rfoot -12.7221 -2.86882
rtoes 13.9318
lfemur -13.5151 6.08919 -17.516
ltibia 17.7497
lfoot -10.3036 3.35992
ltoes 0.569942
